# xmcd
#
# Track frame offsets: 
#        225
#        17935
#        37784
#        61837
#        86588
#        118188
#        140240
#        165079
#        186303
#        202325
#        222097
#
# Disc length: 3343 seconds
#
# Revision: 0
# Processed by: cddbd v1.5.2PL0 Copyright (c) Steve Scherf et al.
# Submitted via: ExactAudioCopy v0.99pb3
#
DISCID=9d0d0c0b
DTITLE=The Michael Wilson Group - The Blues In Black and White
DYEAR=1998
DGENRE=Blues
TTITLE0=Twist N' Shout
TTITLE1=Saturday Night Romance
TTITLE2=Bye Bye Baby
TTITLE3=Forever And A Day
TTITLE4=Strip T's (Tori, Tori, Tori)
TTITLE5=Live At The Five
TTITLE6=No Need To Worry
TTITLE7=The Way Back Home
TTITLE8=I Can't Help Myself
TTITLE9=Oleo
TTITLE10=Modern Day Blues
EXTD=
EXTT0=
EXTT1=
EXTT2=
EXTT3=
EXTT4=
EXTT5=
EXTT6=
EXTT7=
EXTT8=
EXTT9=
EXTT10=
PLAYORDER=
